<svg xmlns="http://www.w3.org/2000/svg" xmlns:xlink="http://www.w3.org/1999/xlink" width="880" zoomAndPan="magnify" viewBox="0 0 660 329.999987" height="440" preserveAspectRatio="xMidYMid meet" version="1.0"><defs><g/><clipPath id="0971cd6963"><path d="M 58.570312 50.878906 L 244 50.878906 L 244 236 L 58.570312 236 Z M 58.570312 50.878906 " clip-rule="nonzero"/></clipPath></defs><path fill="#0520da" d="M 127.917969 143.304688 C 127.917969 130.535156 138.269531 120.179688 151.042969 120.179688 C 163.816406 120.179688 174.167969 130.535156 174.167969 143.304688 C 174.167969 156.078125 163.816406 166.433594 151.042969 166.433594 C 138.269531 166.433594 127.917969 156.078125 127.917969 143.304688 Z M 127.917969 143.304688 " fill-opacity="1" fill-rule="nonzero"/><g clip-path="url(#0971cd6963)"><path fill="#0520da" d="M 151.042969 235.808594 C 74.867188 235.808594 58.539062 219.480469 58.539062 143.304688 C 58.539062 67.128906 74.867188 50.804688 151.042969 50.804688 C 227.21875 50.804688 243.546875 67.128906 243.546875 143.304688 C 243.546875 219.480469 227.21875 235.808594 151.042969 235.808594 Z M 181.878906 97.054688 C 181.878906 101.3125 185.328125 104.761719 189.585938 104.761719 C 193.84375 104.761719 197.292969 101.3125 197.292969 97.054688 C 197.292969 92.796875 193.84375 89.347656 189.585938 89.347656 C 185.328125 89.347656 181.878906 92.796875 181.878906 97.054688 Z M 112.5 143.304688 C 112.5 122.019531 129.757812 104.761719 151.042969 104.761719 C 172.328125 104.761719 189.585938 122.019531 189.585938 143.304688 C 189.585938 164.59375 172.328125 181.847656 151.042969 181.847656 C 129.757812 181.847656 112.5 164.59375 112.5 143.304688 Z M 112.5 143.304688 " fill-opacity="1" fill-rule="evenodd"/></g><g fill="#0520da" fill-opacity="1"><g transform="translate(267.206266, 104.83994)"><g><path d="M 1.804688 -10.007812 L 6.339844 -10.007812 L 6.339844 -35.199219 L 1.804688 -35.199219 L 1.804688 -45.203125 L 22.746094 -45.203125 C 30.96875 -45.203125 37.261719 -43.304688 41.625 -39.503906 C 45.992188 -35.703125 48.171875 -30.078125 48.171875 -22.632812 C 48.171875 -15.378906 46 -9.792969 41.65625 -5.875 C 37.3125 -1.957031 30.988281 0 22.691406 0 L 1.804688 0 Z M 22.691406 -10.007812 C 25.871094 -10.007812 28.1875 -11.199219 29.640625 -13.585938 C 31.097656 -15.96875 31.824219 -18.984375 31.824219 -22.632812 C 31.824219 -26.355469 31.105469 -29.378906 29.671875 -31.707031 C 28.234375 -34.035156 25.910156 -35.199219 22.691406 -35.199219 L 20.886719 -35.199219 L 20.886719 -10.007812 Z M 22.691406 -10.007812 "/></g></g></g><g fill="#0520da" fill-opacity="1"><g transform="translate(318.45556, 104.83994)"><g><path d="M 3.664062 -10.007812 L 8.203125 -10.007812 L 8.203125 -35.199219 L 3.664062 -35.199219 L 3.664062 -45.203125 L 32.695312 -45.203125 C 37.390625 -45.203125 40.839844 -44.253906 43.050781 -42.355469 C 45.261719 -40.453125 46.367188 -37.3125 46.367188 -32.929688 C 46.367188 -29.980469 45.542969 -27.710938 43.894531 -26.121094 C 42.246094 -24.53125 39.910156 -23.464844 36.886719 -22.921875 C 39.601562 -22.496094 41.558594 -21.476562 42.761719 -19.867188 C 43.964844 -18.257812 44.566406 -16.25 44.566406 -13.847656 L 44.566406 -10.179688 L 50.90625 -10.179688 L 50.90625 0 L 41.773438 0 C 38.824219 0 36.710938 -0.195312 35.429688 -0.582031 C 34.152344 -0.96875 33.171875 -2.035156 32.492188 -3.78125 C 31.8125 -5.527344 31.476562 -8.4375 31.476562 -12.507812 C 31.476562 -14.835938 31.097656 -16.5625 30.339844 -17.6875 C 29.582031 -18.8125 28.199219 -19.375 26.179688 -19.375 L 22.746094 -19.375 L 22.746094 -10.007812 L 27.285156 -10.007812 L 27.285156 0 L 3.664062 0 Z M 26.644531 -25.832031 C 28.703125 -25.832031 30.234375 -26.199219 31.242188 -26.9375 C 32.25 -27.671875 32.753906 -28.972656 32.753906 -30.835938 C 32.753906 -32.191406 32.242188 -33.257812 31.214844 -34.035156 C 30.183594 -34.808594 28.855469 -35.199219 27.226562 -35.199219 L 22.746094 -35.199219 L 22.746094 -25.832031 Z M 26.644531 -25.832031 "/></g></g></g><g fill="#0520da" fill-opacity="1"><g transform="translate(369.006786, 104.83994)"><g><path d="M 2.734375 0 L 2.734375 -10.007812 L 8.203125 -10.007812 L 8.203125 -35.199219 L 2.734375 -35.199219 L 2.734375 -45.203125 L 40.898438 -45.203125 L 40.898438 -27.226562 L 33.628906 -27.226562 L 30.894531 -35.199219 L 22.746094 -35.199219 L 22.746094 -27.808594 L 30.019531 -27.808594 L 30.019531 -20.363281 L 22.746094 -20.363281 L 22.746094 -10.007812 L 30.894531 -10.007812 L 33.628906 -19.257812 L 40.898438 -19.257812 L 40.898438 0 Z M 2.734375 0 "/></g></g></g><g fill="#0520da" fill-opacity="1"><g transform="translate(410.192365, 104.83994)"><g><path d="M 0.929688 0 L 0.929688 -10.007812 L 5.410156 -10.007812 L 13.207031 -35.199219 L 7.273438 -35.199219 L 7.273438 -45.203125 L 35.429688 -45.203125 L 45.496094 -10.007812 L 49.976562 -10.007812 L 49.976562 0 L 24.550781 0 L 24.550781 -10.007812 L 28.214844 -10.007812 L 26.996094 -14.835938 L 16.753906 -14.835938 L 15.476562 -10.007812 L 20.886719 -10.007812 L 20.886719 0 Z M 18.210938 -21.699219 L 25.65625 -21.699219 L 22.339844 -35.546875 Z M 18.210938 -21.699219 "/></g></g></g><g fill="#0520da" fill-opacity="1"><g transform="translate(460.161877, 104.83994)"><g><path d="M 1.804688 0 L 1.804688 -10.007812 L 7.273438 -10.007812 L 7.273438 -35.199219 L 1.804688 -35.199219 L 1.804688 -45.203125 L 26.179688 -45.203125 L 34.964844 -23.445312 L 43.632812 -45.203125 L 66.382812 -45.203125 L 66.382812 -35.199219 L 60.914062 -35.199219 L 60.914062 -10.007812 L 66.382812 -10.007812 L 66.382812 0 L 42.703125 0 L 42.703125 -10.007812 L 46.367188 -10.007812 L 46.367188 -26.878906 L 36.363281 0 L 28.160156 0 L 16.347656 -27.519531 L 16.347656 -10.007812 L 20.886719 -10.007812 L 20.886719 0 Z M 1.804688 0 "/></g></g></g><g fill="#0520da" fill-opacity="1"><g transform="translate(293.137866, 196.79791)"><g><path d="M 12.085938 10.859375 C 14.070312 9.808594 16.085938 8.234375 18.128906 6.128906 C 20.171875 4.027344 21.980469 1.808594 23.558594 -0.527344 C 25.136719 -2.859375 26.15625 -4.90625 26.625 -6.65625 L 17.867188 0.875 C 16.464844 2.160156 15.441406 3.125 14.800781 3.765625 C 14.160156 4.40625 13.691406 5.195312 13.398438 6.128906 C 13.109375 7.066406 12.667969 8.640625 12.085938 10.859375 Z M 16.464844 -4.554688 C 17.046875 -4.90625 17.398438 -5.167969 17.515625 -5.34375 C 17.632812 -5.515625 17.925781 -5.839844 18.390625 -6.304688 C 19.09375 -6.773438 19.734375 -7.238281 20.316406 -7.707031 C 22.886719 -9.925781 24.84375 -11.558594 26.1875 -12.613281 C 27.527344 -13.664062 28.464844 -14.539062 28.988281 -15.238281 C 29.515625 -15.9375 29.804688 -16.757812 29.863281 -17.691406 C 29.921875 -18.625 29.953125 -20.085938 29.953125 -22.070312 C 29.953125 -24.753906 29.425781 -26.097656 28.375 -26.097656 C 27.558594 -26.097656 26.507812 -25.308594 25.222656 -23.734375 C 23.9375 -22.15625 22.652344 -20.171875 21.371094 -17.777344 C 20.085938 -15.382812 18.976562 -12.992188 18.042969 -10.597656 C 17.105469 -8.203125 16.582031 -6.1875 16.464844 -4.554688 Z M 0 -0.699219 C 0 -2.101562 0.117188 -4.816406 0.351562 -8.84375 C 0.582031 -12.875 0.964844 -17.488281 1.488281 -22.683594 C 2.015625 -27.878906 2.6875 -32.902344 3.503906 -37.746094 C 4.320312 -42.59375 5.3125 -46.621094 6.480469 -49.832031 C 7.648438 -53.042969 8.992188 -54.648438 10.507812 -54.648438 C 11.328125 -54.648438 12.144531 -54.414062 12.960938 -53.949219 C 13.3125 -52.664062 13.488281 -51.730469 13.488281 -51.144531 C 13.488281 -50.5625 13.398438 -49.921875 13.222656 -49.21875 C 13.050781 -48.519531 12.726562 -47.175781 12.261719 -45.191406 C 10.625 -36.898438 9.429688 -28.753906 8.671875 -20.757812 C 7.910156 -12.757812 7.53125 -4.378906 7.53125 4.378906 C 8.347656 3.796875 9.195312 2.191406 10.070312 -0.4375 C 10.949219 -3.066406 11.96875 -6.101562 13.136719 -9.546875 C 14.304688 -12.992188 15.589844 -16.40625 16.992188 -19.792969 C 18.390625 -23.179688 20.027344 -25.980469 21.894531 -28.199219 C 23.761719 -30.417969 25.921875 -31.527344 28.375 -31.527344 C 30.945312 -31.527344 32.84375 -30.332031 34.066406 -27.9375 C 35.292969 -25.542969 35.90625 -23.121094 35.90625 -20.667969 C 36.609375 -20.902344 37.425781 -21.339844 38.359375 -21.980469 C 39.292969 -22.625 40.109375 -23.179688 40.8125 -23.644531 C 41.980469 -24.464844 43.351562 -25.457031 44.929688 -26.625 C 46.503906 -27.792969 48.050781 -28.84375 49.570312 -29.777344 C 51.085938 -30.710938 52.3125 -31.179688 53.246094 -31.179688 C 54.300781 -31.179688 54.824219 -30.476562 54.824219 -29.078125 C 54.824219 -28.492188 53.949219 -27.5 52.195312 -26.097656 C 50.445312 -24.699219 48.402344 -23.179688 46.066406 -21.542969 C 43.730469 -19.910156 41.542969 -18.390625 39.5 -16.992188 C 37.453125 -15.589844 36.140625 -14.539062 35.558594 -13.835938 C 35.207031 -13.371094 34.652344 -12.058594 33.894531 -9.894531 C 33.132812 -7.734375 32.082031 -5.167969 30.742188 -2.191406 C 29.398438 0.789062 27.585938 3.765625 25.308594 6.742188 C 23.035156 9.722656 20.085938 12.261719 16.464844 14.363281 C 15.765625 14.714844 14.976562 15.0625 14.101562 15.414062 C 13.222656 15.765625 12.496094 16.171875 11.910156 16.640625 C 11.09375 17.105469 10.421875 18.507812 9.894531 20.84375 C 9.371094 23.179688 8.992188 25.574219 8.757812 28.023438 C 8.523438 30.476562 8.40625 32.230469 8.40625 33.28125 C 8.40625 35.382812 8.554688 37.6875 8.84375 40.199219 C 9.136719 42.710938 9.226562 44.839844 9.109375 46.59375 C 8.992188 48.34375 8.289062 49.21875 7.007812 49.21875 C 5.722656 49.21875 4.960938 48.8125 4.730469 47.992188 C 4.496094 47.175781 4.261719 46.007812 4.027344 44.488281 C 2.976562 37.132812 2.042969 29.632812 1.226562 21.980469 C 0.410156 14.332031 0 6.773438 0 -0.699219 Z M 0 -0.699219 "/></g></g></g><g fill="#0520da" fill-opacity="1"><g transform="translate(342.195805, 196.79791)"><g><path d="M 14.539062 0.699219 C 12.203125 0.699219 10.128906 -0.0585938 8.320312 -1.578125 C 6.511719 -3.09375 5.136719 -4.671875 4.203125 -6.304688 C 2.101562 -10.277344 0.90625 -14.976562 0.613281 -20.40625 C 0.320312 -25.835938 0.640625 -30.769531 1.578125 -35.207031 C 1.808594 -36.492188 2.132812 -38.039062 2.539062 -39.847656 C 2.949219 -41.660156 3.5625 -43.265625 4.378906 -44.664062 C 5.195312 -46.066406 6.1875 -46.765625 7.355469 -46.765625 C 10.042969 -46.765625 11.355469 -45.863281 11.296875 -44.050781 C 11.238281 -42.242188 10.742188 -39.441406 9.808594 -35.644531 C 8.875 -31.847656 8.40625 -26.972656 8.40625 -21.019531 C 8.40625 -19.265625 8.640625 -17.164062 9.109375 -14.714844 C 9.574219 -12.261719 10.304688 -10.101562 11.296875 -8.234375 C 12.289062 -6.363281 13.546875 -5.429688 15.0625 -5.429688 C 16.933594 -5.429688 19.0625 -6.246094 21.457031 -7.882812 C 23.851562 -9.515625 26.070312 -11.355469 28.113281 -13.398438 C 30.15625 -15.441406 31.585938 -16.992188 32.402344 -18.042969 C 32.636719 -18.273438 33.28125 -19.0625 34.332031 -20.40625 C 35.382812 -21.75 36.636719 -23.265625 38.097656 -24.960938 C 39.554688 -26.652344 40.988281 -28.140625 42.386719 -29.425781 C 43.789062 -30.710938 44.898438 -31.351562 45.714844 -31.351562 C 46.535156 -31.351562 46.941406 -30.652344 46.941406 -29.25 C 46.941406 -28.433594 46.386719 -27.179688 45.277344 -25.484375 C 44.167969 -23.792969 42.855469 -22.011719 41.335938 -20.144531 C 39.820312 -18.273438 38.332031 -16.523438 36.871094 -14.886719 C 35.410156 -13.253906 34.332031 -12.085938 33.628906 -11.386719 C 32.230469 -9.984375 30.566406 -8.320312 28.636719 -6.394531 C 26.710938 -4.464844 24.582031 -2.800781 22.246094 -1.402344 C 19.910156 0 17.339844 0.699219 14.539062 0.699219 Z M 8.933594 -68.835938 C 8.933594 -70.820312 9.457031 -72.542969 10.507812 -74.003906 C 11.558594 -75.464844 12.726562 -76.195312 14.011719 -76.195312 C 15.414062 -76.195312 16.582031 -75.316406 17.515625 -73.566406 C 19.152344 -70.296875 19.355469 -67.757812 18.128906 -65.945312 C 16.902344 -64.136719 15.414062 -63.230469 13.664062 -63.230469 C 12.496094 -63.230469 11.414062 -63.699219 10.421875 -64.632812 C 9.429688 -65.566406 8.933594 -66.96875 8.933594 -68.835938 Z M 8.933594 -68.835938 "/></g></g></g><g fill="#0520da" fill-opacity="1"><g transform="translate(382.131844, 196.79791)"><g><path d="M 2.628906 -32.054688 C 2.628906 -32.988281 2.6875 -34.417969 2.800781 -36.34375 C 2.917969 -38.273438 3.183594 -40.285156 3.589844 -42.386719 C 4 -44.488281 4.582031 -46.269531 5.34375 -47.730469 C 6.101562 -49.191406 7.125 -49.921875 8.40625 -49.921875 C 10.160156 -49.921875 11.035156 -49.160156 11.035156 -47.644531 C 11.035156 -45.074219 10.890625 -43.148438 10.597656 -41.863281 C 10.304688 -40.578125 10.042969 -38.886719 9.808594 -36.78125 C 9.691406 -35.148438 9.664062 -33.308594 9.722656 -31.265625 C 9.78125 -29.222656 9.808594 -27.324219 9.808594 -25.574219 C 10.507812 -25.691406 11.558594 -26.390625 12.960938 -27.675781 C 14.363281 -28.960938 15.824219 -30.332031 17.339844 -31.792969 C 18.859375 -33.25 20.085938 -34.390625 21.019531 -35.207031 C 21.71875 -35.675781 22.332031 -36.140625 22.859375 -36.609375 C 23.382812 -37.074219 23.996094 -37.542969 24.699219 -38.007812 C 25.75 -38.828125 27.324219 -40.140625 29.425781 -41.949219 C 31.527344 -43.761719 33.6875 -45.425781 35.90625 -46.941406 C 38.125 -48.460938 39.820312 -49.21875 40.988281 -49.21875 C 41.570312 -49.21875 42.097656 -49.042969 42.5625 -48.695312 C 43.03125 -48.34375 43.265625 -47.875 43.265625 -47.292969 C 43.265625 -46.242188 42.882812 -45.484375 42.125 -45.015625 C 41.367188 -44.546875 40.460938 -43.964844 39.410156 -43.265625 C 35.207031 -40.34375 30.972656 -36.929688 26.710938 -33.015625 C 22.449219 -29.105469 18.507812 -25.691406 14.886719 -22.769531 C 14.070312 -22.1875 13.429688 -21.632812 12.960938 -21.105469 C 12.496094 -20.582031 11.851562 -20.027344 11.035156 -19.441406 C 11.503906 -18.390625 12.171875 -16.960938 13.050781 -15.152344 C 13.925781 -13.339844 15.0625 -11.707031 16.464844 -10.246094 C 17.867188 -8.785156 19.675781 -8.058594 21.894531 -8.058594 C 23.996094 -8.058594 26.273438 -8.671875 28.726562 -9.894531 C 31.179688 -11.121094 33.542969 -12.582031 35.820312 -14.273438 C 38.097656 -15.96875 39.996094 -17.457031 41.511719 -18.742188 L 50.972656 -28.199219 C 52.722656 -30.535156 54.183594 -31.703125 55.351562 -31.703125 C 56.167969 -31.703125 56.574219 -31.0625 56.574219 -29.777344 C 56.574219 -28.960938 55.964844 -27.761719 54.738281 -26.1875 C 53.511719 -24.609375 52.023438 -22.917969 50.269531 -21.105469 C 48.519531 -19.296875 46.855469 -17.660156 45.277344 -16.203125 C 43.703125 -14.742188 42.5625 -13.722656 41.863281 -13.136719 C 38.476562 -10.335938 35.03125 -7.910156 31.527344 -5.867188 C 28.023438 -3.824219 24.582031 -2.800781 21.195312 -2.800781 C 18.625 -2.800781 16.085938 -3.648438 13.574219 -5.34375 C 11.0625 -7.035156 8.699219 -9.984375 6.480469 -14.1875 C 5.546875 -13.605469 4.4375 -12.613281 3.152344 -11.210938 C 1.867188 -9.808594 0.640625 -8.347656 -0.527344 -6.832031 C -1.691406 -5.3125 -2.628906 -4.085938 -3.328125 -3.152344 C -5.546875 -0.117188 -7.152344 2.277344 -8.144531 4.027344 C -9.136719 5.78125 -9.867188 7.007812 -10.335938 7.707031 C -10.800781 8.40625 -11.386719 8.757812 -12.085938 8.757812 C -12.320312 8.757812 -12.902344 8.640625 -13.835938 8.40625 C -13.953125 7.824219 -14.070312 7.503906 -14.1875 7.445312 C -14.304688 7.386719 -14.363281 7.125 -14.363281 6.65625 C -14.363281 4.4375 -13.457031 1.957031 -11.648438 -0.789062 C -9.839844 -3.53125 -7.882812 -6.128906 -5.78125 -8.582031 C -3.679688 -11.035156 -2.101562 -12.902344 -1.050781 -14.1875 C 0.816406 -16.523438 2.132812 -18.070312 2.890625 -18.828125 C 3.648438 -19.589844 4.085938 -20.054688 4.203125 -20.230469 C 4.320312 -20.40625 4.234375 -20.726562 3.941406 -21.195312 C 3.648438 -21.660156 3.355469 -22.683594 3.066406 -24.257812 C 2.773438 -25.835938 2.628906 -28.433594 2.628906 -32.054688 Z M 2.628906 -32.054688 "/></g></g></g><g fill="#0520da" fill-opacity="1"><g transform="translate(432.752532, 196.79791)"><g><path d="M 8.058594 -31.703125 C 10.277344 -32.871094 12.726562 -34.476562 15.414062 -36.519531 C 18.101562 -38.5625 19.558594 -40.988281 19.792969 -43.789062 C 18.273438 -43.554688 16.667969 -42.738281 14.976562 -41.335938 C 13.28125 -39.9375 11.824219 -38.359375 10.597656 -36.609375 C 9.371094 -34.855469 8.523438 -33.222656 8.058594 -31.703125 Z M 0.175781 -27.5 C 0.175781 -30.417969 1.136719 -33.570312 3.066406 -36.957031 C 4.992188 -40.34375 7.386719 -43.234375 10.246094 -45.628906 C 13.109375 -48.023438 15.9375 -49.21875 18.742188 -49.21875 C 22.59375 -49.21875 24.609375 -47.757812 24.785156 -44.839844 C 24.960938 -41.921875 23.703125 -38.769531 21.019531 -35.382812 C 19.617188 -33.863281 17.515625 -32.113281 14.714844 -30.128906 C 11.910156 -28.140625 9.167969 -27.03125 6.480469 -26.800781 C 6.480469 -24.929688 6.539062 -23.265625 6.65625 -21.808594 C 6.773438 -20.347656 7.589844 -18.859375 9.109375 -17.339844 C 10.625 -15.824219 12.554688 -15.0625 14.886719 -15.0625 C 17.925781 -15.0625 21.078125 -16.027344 24.347656 -17.953125 C 27.617188 -19.878906 30.128906 -21.484375 31.878906 -22.769531 C 32.578125 -23.355469 33.132812 -23.820312 33.542969 -24.171875 C 33.953125 -24.523438 34.449219 -24.929688 35.03125 -25.398438 C 37.484375 -27.265625 39.03125 -28.636719 39.671875 -29.515625 C 40.316406 -30.390625 40.871094 -30.972656 41.335938 -31.265625 C 41.804688 -31.558594 42.914062 -31.703125 44.664062 -31.703125 C 44.898438 -30.417969 44.988281 -29.542969 44.929688 -29.078125 C 44.871094 -28.609375 44.433594 -27.910156 43.613281 -26.972656 C 41.511719 -24.871094 38.855469 -22.480469 35.644531 -19.792969 C 32.433594 -17.105469 28.988281 -14.773438 25.308594 -12.785156 C 21.632812 -10.800781 17.984375 -9.808594 14.363281 -9.808594 C 12.496094 -9.808594 10.714844 -10.128906 9.019531 -10.773438 C 7.328125 -11.414062 5.722656 -12.496094 4.203125 -14.011719 C 2.101562 -16.113281 0.90625 -18.273438 0.613281 -20.492188 C 0.320312 -22.710938 0.175781 -25.046875 0.175781 -27.5 Z M 0.175781 -27.5 "/></g></g></g><g fill="#0520da" fill-opacity="1"><g transform="translate(470.761835, 196.79791)"><g><path d="M 0.351562 -13.488281 C 0.351562 -19.324219 0.699219 -25.632812 1.402344 -32.402344 C 2.101562 -39.175781 3.035156 -45.890625 4.203125 -52.546875 C 5.371094 -59.203125 6.65625 -65.21875 8.058594 -70.589844 C 8.640625 -72.339844 9.226562 -74.296875 9.808594 -76.457031 C 10.394531 -78.617188 11.152344 -80.484375 12.085938 -82.0625 C 13.019531 -83.636719 14.246094 -84.425781 15.765625 -84.425781 C 17.164062 -84.425781 18.042969 -83.902344 18.390625 -82.851562 C 18.742188 -81.796875 18.769531 -80.542969 18.480469 -79.082031 C 18.1875 -77.625 17.808594 -76.28125 17.339844 -75.054688 C 16.875 -73.828125 16.582031 -72.984375 16.464844 -72.515625 C 15.53125 -69.011719 14.449219 -64.253906 13.222656 -58.238281 C 12 -52.226562 10.832031 -45.65625 9.722656 -38.535156 C 8.613281 -31.410156 7.765625 -24.347656 7.179688 -17.339844 C 6.597656 -10.335938 6.480469 -4 6.832031 1.664062 C 7.179688 7.328125 8.117188 11.675781 9.632812 14.714844 C 11.617188 13.664062 13.253906 12.085938 14.539062 9.984375 C 15.824219 7.882812 16.933594 5.839844 17.867188 3.851562 C 20.550781 -1.285156 23.179688 -6.714844 25.75 -12.4375 C 28.316406 -18.15625 31.003906 -23.53125 33.804688 -28.550781 C 34.738281 -30.417969 35.730469 -31.351562 36.78125 -31.351562 C 37.25 -31.351562 37.628906 -31.148438 37.921875 -30.742188 C 38.214844 -30.332031 38.359375 -29.894531 38.359375 -29.425781 C 38.359375 -29.078125 37.890625 -27.96875 36.957031 -26.097656 C 36.023438 -24.230469 35.0625 -22.304688 34.066406 -20.316406 C 33.074219 -18.332031 32.402344 -17.046875 32.054688 -16.464844 C 30.886719 -14.011719 29.574219 -11.152344 28.113281 -7.882812 C 26.652344 -4.613281 25.222656 -1.402344 23.820312 1.75 C 22.421875 4.90625 21.078125 7.589844 19.792969 9.808594 C 19.210938 10.742188 18.421875 12 17.429688 13.574219 C 16.4375 15.152344 15.355469 16.523438 14.1875 17.691406 C 13.019531 18.859375 11.675781 19.441406 10.160156 19.441406 C 7.824219 19.441406 5.984375 18.273438 4.640625 15.9375 C 3.296875 13.605469 2.335938 10.683594 1.75 7.179688 C 1.167969 3.679688 0.789062 0.0585938 0.613281 -3.679688 C 0.4375 -7.414062 0.351562 -10.683594 0.351562 -13.488281 Z M 0.351562 -13.488281 "/></g></g></g></svg>